<mxfile host="65bd71144e">
    <diagram id="3_NzdjM4D1sIUpUd0zuz" name="第 1 页">
        <mxGraphModel dx="2758" dy="3191" grid="0" gridSize="10" guides="1" tooltips="1" connect="1" arrows="1" fold="1" page="0" pageScale="1" pageWidth="827" pageHeight="1169" math="0" shadow="0">
            <root>
                <mxCell id="0"/>
                <mxCell id="1" parent="0"/>
                <mxCell id="2" value="stopCh&lt;br style=&quot;font-size: 16px;&quot;&gt;由外界发出" style="rounded=0;whiteSpace=wrap;html=1;sketch=1;hachureGap=4;fontFamily=Lucida Console;fontSize=16;fillColor=#cdeb8b;strokeColor=#36393d;fillStyle=solid;" vertex="1" parent="1">
                    <mxGeometry x="-403" y="809.5" width="160" height="80" as="geometry"/>
                </mxCell>
                <mxCell id="6" value="shutdownInitiatedCh&lt;br style=&quot;font-size: 16px;&quot;&gt;(ShutdownInitiated)" style="rounded=0;whiteSpace=wrap;html=1;sketch=1;hachureGap=4;fontFamily=Lucida Console;fontSize=16;fillColor=#1ba1e2;strokeColor=#006EAF;fillStyle=solid;fontColor=#ffffff;" vertex="1" parent="1">
                    <mxGeometry x="-140" y="65" width="286" height="85" as="geometry"/>
                </mxCell>
                <mxCell id="7" value="(MuxAndDiscoveryComplate)" style="rounded=0;whiteSpace=wrap;html=1;sketch=1;hachureGap=4;fontFamily=Lucida Console;fontSize=16;fillColor=#1ba1e2;strokeColor=#006EAF;fillStyle=solid;fontColor=#ffffff;" vertex="1" parent="1">
                    <mxGeometry x="-140" y="244" width="286" height="85" as="geometry"/>
                </mxCell>
                <mxCell id="8" value="All Mux And Discovery&lt;br&gt;Complate" style="rounded=0;whiteSpace=wrap;html=1;sketch=1;hachureGap=4;fontFamily=Lucida Console;fontSize=16;fillColor=#1ba1e2;strokeColor=#006EAF;fillStyle=solid;fontColor=#ffffff;" vertex="1" parent="1">
                    <mxGeometry x="282" y="244" width="286" height="85" as="geometry"/>
                </mxCell>
                <mxCell id="9" value="delayedStopCh&lt;br&gt;(AfterShutdownDelayDuration)" style="rounded=0;whiteSpace=wrap;html=1;sketch=1;hachureGap=4;fontFamily=Lucida Console;fontSize=16;fillColor=#1ba1e2;strokeColor=#006EAF;fillStyle=solid;fontColor=#ffffff;" vertex="1" parent="1">
                    <mxGeometry x="-140" y="415" width="286" height="85" as="geometry"/>
                </mxCell>
                <mxCell id="10" value="drainedCh&lt;br&gt;(InFlightRequestDrained)" style="rounded=0;whiteSpace=wrap;html=1;sketch=1;hachureGap=4;fontFamily=Lucida Console;fontSize=16;fillColor=#1ba1e2;strokeColor=#006EAF;fillStyle=solid;fontColor=#ffffff;" vertex="1" parent="1">
                    <mxGeometry x="-140" y="618" width="286" height="85" as="geometry"/>
                </mxCell>
                <mxCell id="11" value="Server Destory&lt;br&gt;销毁、消失" style="rounded=0;whiteSpace=wrap;html=1;sketch=1;hachureGap=4;fontFamily=Lucida Console;fontSize=16;fillColor=#f5f5f5;strokeColor=#666666;fillStyle=solid;gradientColor=#b3b3b3;" vertex="1" parent="1">
                    <mxGeometry x="-140" y="1007" width="286" height="85" as="geometry"/>
                </mxCell>
                <mxCell id="12" value="HandlerChainWaitGroup.Wait()" style="rounded=0;whiteSpace=wrap;html=1;sketch=1;hachureGap=4;fontFamily=Lucida Console;fontSize=16;fillColor=#1ba1e2;strokeColor=#006EAF;fillStyle=solid;fontColor=#ffffff;" vertex="1" parent="1">
                    <mxGeometry x="282" y="618" width="286" height="85" as="geometry"/>
                </mxCell>
                <mxCell id="13" value="RunPreShutdownHooks()" style="rounded=0;whiteSpace=wrap;html=1;sketch=1;hachureGap=4;fontFamily=Lucida Console;fontSize=16;fillColor=#1ba1e2;strokeColor=#006EAF;fillStyle=solid;fontColor=#ffffff;" vertex="1" parent="1">
                    <mxGeometry x="282" y="807" width="286" height="85" as="geometry"/>
                </mxCell>
                <mxCell id="14" value="preShutdownHooksHasStoppedCh" style="rounded=0;whiteSpace=wrap;html=1;sketch=1;hachureGap=4;fontFamily=Lucida Console;fontSize=16;fillColor=#1ba1e2;strokeColor=#006EAF;fillStyle=solid;fontColor=#ffffff;" vertex="1" parent="1">
                    <mxGeometry x="682" y="807" width="286" height="85" as="geometry"/>
                </mxCell>
                <mxCell id="25" style="edgeStyle=none;curved=1;rounded=0;sketch=1;hachureGap=4;orthogonalLoop=1;jettySize=auto;html=1;fontFamily=Lucida Console;fontSize=16;startArrow=none;startFill=0;endArrow=none;endFill=0;startSize=14;endSize=14;sourcePerimeterSpacing=8;targetPerimeterSpacing=8;" edge="1" parent="1" source="15">
                    <mxGeometry relative="1" as="geometry">
                        <mxPoint x="1247" y="1049" as="targetPoint"/>
                    </mxGeometry>
                </mxCell>
                <mxCell id="15" value="stopHttpServerCh" style="rounded=0;whiteSpace=wrap;html=1;sketch=1;hachureGap=4;fontFamily=Lucida Console;fontSize=16;fillColor=#1ba1e2;strokeColor=#006EAF;fillStyle=solid;fontColor=#ffffff;" vertex="1" parent="1">
                    <mxGeometry x="1104" y="807" width="286" height="85" as="geometry"/>
                </mxCell>
                <mxCell id="23" style="edgeStyle=none;curved=1;rounded=0;sketch=1;hachureGap=4;orthogonalLoop=1;jettySize=auto;html=1;entryX=0;entryY=0.5;entryDx=0;entryDy=0;fontFamily=Lucida Console;fontSize=16;endArrow=open;startSize=14;endSize=14;sourcePerimeterSpacing=8;targetPerimeterSpacing=8;exitX=1;exitY=0.5;exitDx=0;exitDy=0;startArrow=open;startFill=0;endFill=0;" edge="1" parent="1" source="16" target="17">
                    <mxGeometry relative="1" as="geometry"/>
                </mxCell>
                <mxCell id="27" value="由 httpserver 触发" style="edgeLabel;html=1;align=center;verticalAlign=middle;resizable=0;points=[];fontSize=16;fontFamily=Lucida Console;" vertex="1" connectable="0" parent="23">
                    <mxGeometry x="-0.5765" y="5" relative="1" as="geometry">
                        <mxPoint x="85" y="-10" as="offset"/>
                    </mxGeometry>
                </mxCell>
                <mxCell id="28" value="由 httpserver 触发" style="edgeLabel;html=1;align=center;verticalAlign=middle;resizable=0;points=[];fontSize=16;fontFamily=Lucida Console;" vertex="1" connectable="0" parent="23">
                    <mxGeometry x="0.4536" y="-1" relative="1" as="geometry">
                        <mxPoint x="3" y="-15" as="offset"/>
                    </mxGeometry>
                </mxCell>
                <mxCell id="16" value="stoppedCh" style="rounded=0;whiteSpace=wrap;html=1;sketch=1;hachureGap=4;fontFamily=Lucida Console;fontSize=16;fillColor=#1ba1e2;strokeColor=#006EAF;fillStyle=solid;fontColor=#ffffff;" vertex="1" parent="1">
                    <mxGeometry x="682" y="1007" width="286" height="85" as="geometry"/>
                </mxCell>
                <mxCell id="19" style="edgeStyle=none;curved=1;rounded=0;sketch=1;hachureGap=4;orthogonalLoop=1;jettySize=auto;html=1;entryX=0.5;entryY=0;entryDx=0;entryDy=0;fontFamily=Lucida Console;fontSize=16;endArrow=open;startSize=14;endSize=14;sourcePerimeterSpacing=8;targetPerimeterSpacing=8;" edge="1" parent="1" source="17" target="18">
                    <mxGeometry relative="1" as="geometry"/>
                </mxCell>
                <mxCell id="20" value="触发" style="edgeLabel;html=1;align=center;verticalAlign=middle;resizable=0;points=[];fontSize=16;fontFamily=Lucida Console;" vertex="1" connectable="0" parent="19">
                    <mxGeometry x="-0.3105" y="-1" relative="1" as="geometry">
                        <mxPoint as="offset"/>
                    </mxGeometry>
                </mxCell>
                <mxCell id="17" value="listenerStoppedCh" style="rounded=0;whiteSpace=wrap;html=1;sketch=1;hachureGap=4;fontFamily=Lucida Console;fontSize=16;fillColor=#1ba1e2;strokeColor=#006EAF;fillStyle=solid;fontColor=#ffffff;" vertex="1" parent="1">
                    <mxGeometry x="1467" y="1007" width="286" height="85" as="geometry"/>
                </mxCell>
                <mxCell id="18" value="httpServerStoppedListeningCh&lt;br&gt;(HTTPServerStoppedListening)" style="rounded=0;whiteSpace=wrap;html=1;sketch=1;hachureGap=4;fontFamily=Lucida Console;fontSize=16;fillColor=#1ba1e2;strokeColor=#006EAF;fillStyle=solid;fontColor=#ffffff;" vertex="1" parent="1">
                    <mxGeometry x="1467" y="1217" width="286" height="85" as="geometry"/>
                </mxCell>
                <mxCell id="29" value="delayedStopOrDrainedCh" style="rounded=0;whiteSpace=wrap;html=1;sketch=1;hachureGap=4;fontFamily=Lucida Console;fontSize=16;fillColor=#1ba1e2;strokeColor=#006EAF;fillStyle=solid;fontColor=#ffffff;" vertex="1" parent="1">
                    <mxGeometry x="1104" y="415" width="286" height="85" as="geometry"/>
                </mxCell>
                <mxCell id="34" value="" style="edgeStyle=orthogonalEdgeStyle;orthogonalLoop=1;jettySize=auto;html=1;rounded=0;sketch=1;hachureGap=4;fontFamily=Lucida Console;fontSize=16;startArrow=open;startFill=0;endArrow=none;endFill=0;startSize=14;endSize=14;sourcePerimeterSpacing=8;targetPerimeterSpacing=8;exitX=1;exitY=0.5;exitDx=0;exitDy=0;entryX=1;entryY=0.5;entryDx=0;entryDy=0;" edge="1" parent="1" source="15" target="29">
                    <mxGeometry width="120" relative="1" as="geometry">
                        <mxPoint x="1328" y="590" as="sourcePoint"/>
                        <mxPoint x="1439" y="456" as="targetPoint"/>
                        <Array as="points">
                            <mxPoint x="1456" y="850"/>
                            <mxPoint x="1456" y="458"/>
                        </Array>
                    </mxGeometry>
                </mxCell>
                <mxCell id="35" value="允许触发" style="edgeLabel;html=1;align=center;verticalAlign=middle;resizable=0;points=[];fontSize=16;fontFamily=Lucida Console;" vertex="1" connectable="0" parent="34">
                    <mxGeometry x="0.0447" y="-2" relative="1" as="geometry">
                        <mxPoint as="offset"/>
                    </mxGeometry>
                </mxCell>
                <mxCell id="38" value="" style="edgeStyle=none;orthogonalLoop=1;jettySize=auto;html=1;rounded=0;sketch=1;hachureGap=4;fontFamily=Lucida Console;fontSize=16;startArrow=open;startFill=0;endArrow=none;endFill=0;startSize=14;endSize=14;sourcePerimeterSpacing=8;targetPerimeterSpacing=8;exitX=1;exitY=0.5;exitDx=0;exitDy=0;entryX=0;entryY=0.5;entryDx=0;entryDy=0;" edge="1" parent="1" source="7" target="8">
                    <mxGeometry width="120" relative="1" as="geometry">
                        <mxPoint x="228" y="392" as="sourcePoint"/>
                        <mxPoint x="348" y="392" as="targetPoint"/>
                        <Array as="points"/>
                    </mxGeometry>
                </mxCell>
                <mxCell id="39" value="触发" style="edgeLabel;html=1;align=center;verticalAlign=middle;resizable=0;points=[];fontSize=16;fontFamily=Lucida Console;" vertex="1" connectable="0" parent="38">
                    <mxGeometry x="0.1176" y="2" relative="1" as="geometry">
                        <mxPoint as="offset"/>
                    </mxGeometry>
                </mxCell>
                <mxCell id="41" value="" style="edgeStyle=none;orthogonalLoop=1;jettySize=auto;html=1;rounded=0;sketch=1;hachureGap=4;fontFamily=Lucida Console;fontSize=16;startArrow=open;startFill=0;endArrow=none;endFill=0;startSize=14;endSize=14;sourcePerimeterSpacing=8;targetPerimeterSpacing=8;entryX=0.5;entryY=1;entryDx=0;entryDy=0;exitX=0.493;exitY=0.082;exitDx=0;exitDy=0;exitPerimeter=0;" edge="1" parent="1" source="10">
                    <mxGeometry width="120" relative="1" as="geometry">
                        <mxPoint x="3" y="544" as="sourcePoint"/>
                        <mxPoint x="2.58" y="502" as="targetPoint"/>
                        <Array as="points"/>
                    </mxGeometry>
                </mxCell>
                <mxCell id="42" value="允许触发" style="edgeLabel;html=1;align=center;verticalAlign=middle;resizable=0;points=[];fontSize=16;fontFamily=Lucida Console;" vertex="1" connectable="0" parent="41">
                    <mxGeometry x="0.3691" y="1" relative="1" as="geometry">
                        <mxPoint x="2" y="16" as="offset"/>
                    </mxGeometry>
                </mxCell>
                <mxCell id="43" value="" style="edgeStyle=none;orthogonalLoop=1;jettySize=auto;html=1;rounded=0;sketch=1;hachureGap=4;fontFamily=Lucida Console;fontSize=16;startArrow=open;startFill=0;endArrow=none;endFill=0;startSize=14;endSize=14;sourcePerimeterSpacing=8;targetPerimeterSpacing=8;entryX=0.5;entryY=1;entryDx=0;entryDy=0;exitX=0.5;exitY=0;exitDx=0;exitDy=0;" edge="1" parent="1" source="11" target="10">
                    <mxGeometry width="120" relative="1" as="geometry">
                        <mxPoint x="-129" y="891" as="sourcePoint"/>
                        <mxPoint x="-9" y="891" as="targetPoint"/>
                        <Array as="points"/>
                    </mxGeometry>
                </mxCell>
                <mxCell id="59" value="允许触发" style="edgeLabel;html=1;align=center;verticalAlign=middle;resizable=0;points=[];fontSize=16;fontFamily=Lucida Console;" vertex="1" connectable="0" parent="43">
                    <mxGeometry x="0.6667" relative="1" as="geometry">
                        <mxPoint as="offset"/>
                    </mxGeometry>
                </mxCell>
                <mxCell id="44" value="" style="edgeStyle=orthogonalEdgeStyle;orthogonalLoop=1;jettySize=auto;html=1;rounded=0;sketch=1;hachureGap=4;fontFamily=Lucida Console;fontSize=16;startArrow=open;startFill=0;endArrow=none;endFill=0;startSize=14;endSize=14;sourcePerimeterSpacing=8;targetPerimeterSpacing=8;entryX=0.5;entryY=0;entryDx=0;entryDy=0;exitX=0;exitY=0.5;exitDx=0;exitDy=0;" edge="1" parent="1" source="6" target="2">
                    <mxGeometry width="120" relative="1" as="geometry">
                        <mxPoint x="-332" y="656" as="sourcePoint"/>
                        <mxPoint x="-212" y="656" as="targetPoint"/>
                    </mxGeometry>
                </mxCell>
                <mxCell id="60" value="触发" style="edgeLabel;html=1;align=center;verticalAlign=middle;resizable=0;points=[];fontSize=16;fontFamily=Lucida Console;" vertex="1" connectable="0" parent="44">
                    <mxGeometry x="-0.7608" y="-2" relative="1" as="geometry">
                        <mxPoint as="offset"/>
                    </mxGeometry>
                </mxCell>
                <mxCell id="45" value="" style="edgeStyle=orthogonalEdgeStyle;orthogonalLoop=1;jettySize=auto;html=1;rounded=0;sketch=1;hachureGap=4;fontFamily=Lucida Console;fontSize=16;startArrow=open;startFill=0;endArrow=none;endFill=0;startSize=14;endSize=14;sourcePerimeterSpacing=8;targetPerimeterSpacing=8;entryX=0.5;entryY=0;entryDx=0;entryDy=0;exitX=0;exitY=0.5;exitDx=0;exitDy=0;" edge="1" parent="1" source="9" target="2">
                    <mxGeometry width="120" relative="1" as="geometry">
                        <mxPoint x="-249" y="687" as="sourcePoint"/>
                        <mxPoint x="-129" y="687" as="targetPoint"/>
                    </mxGeometry>
                </mxCell>
                <mxCell id="61" value="sleep 指定时间触发" style="edgeLabel;html=1;align=center;verticalAlign=middle;resizable=0;points=[];fontSize=16;fontFamily=Lucida Console;" vertex="1" connectable="0" parent="45">
                    <mxGeometry x="-0.6042" y="3" relative="1" as="geometry">
                        <mxPoint x="8" as="offset"/>
                    </mxGeometry>
                </mxCell>
                <mxCell id="57" value="" style="edgeStyle=none;orthogonalLoop=1;jettySize=auto;html=1;rounded=0;sketch=1;hachureGap=4;fontFamily=Lucida Console;fontSize=16;startArrow=none;startFill=0;endArrow=open;endFill=0;startSize=14;endSize=14;sourcePerimeterSpacing=8;targetPerimeterSpacing=8;elbow=vertical;entryX=0;entryY=0.5;entryDx=0;entryDy=0;" edge="1" parent="1" target="13">
                    <mxGeometry width="120" relative="1" as="geometry">
                        <mxPoint x="-243" y="849" as="sourcePoint"/>
                        <mxPoint x="200" y="870" as="targetPoint"/>
                        <Array as="points">
                            <mxPoint x="1" y="850"/>
                            <mxPoint x="1" y="842"/>
                            <mxPoint x="7" y="842"/>
                            <mxPoint x="7" y="850"/>
                        </Array>
                    </mxGeometry>
                </mxCell>
                <mxCell id="58" value="触发" style="edgeLabel;html=1;align=center;verticalAlign=middle;resizable=0;points=[];fontSize=16;fontFamily=Lucida Console;" vertex="1" connectable="0" parent="57">
                    <mxGeometry x="-0.6131" y="1" relative="1" as="geometry">
                        <mxPoint as="offset"/>
                    </mxGeometry>
                </mxCell>
                <mxCell id="62" value="" style="edgeStyle=orthogonalEdgeStyle;orthogonalLoop=1;jettySize=auto;html=1;rounded=0;sketch=1;hachureGap=4;fontFamily=Lucida Console;fontSize=16;startArrow=none;startFill=0;endArrow=open;endFill=0;startSize=14;endSize=14;sourcePerimeterSpacing=8;targetPerimeterSpacing=8;elbow=vertical;exitX=0.5;exitY=1;exitDx=0;exitDy=0;entryX=0;entryY=0.5;entryDx=0;entryDy=0;" edge="1" parent="1" source="2" target="11">
                    <mxGeometry width="120" relative="1" as="geometry">
                        <mxPoint x="-308" y="1188" as="sourcePoint"/>
                        <mxPoint x="-188" y="1188" as="targetPoint"/>
                    </mxGeometry>
                </mxCell>
                <mxCell id="64" value="&lt;span style=&quot;color: rgba(0 , 0 , 0 , 0) ; font-family: monospace ; font-size: 0px&quot;&gt;%3CmxGraphModel%3E%3Croot%3E%3CmxCell%20id%3D%220%22%2F%3E%3CmxCell%20id%3D%221%22%20parent%3D%220%22%2F%3E%3CmxCell%20id%3D%222%22%20value%3D%22%E5%85%81%E8%AE%B8%E8%A7%A6%E5%8F%91%22%20style%3D%22edgeLabel%3Bhtml%3D1%3Balign%3Dcenter%3BverticalAlign%3Dmiddle%3Bresizable%3D0%3Bpoints%3D%5B%5D%3BfontSize%3D16%3BfontFamily%3DLucida%20Console%3B%22%20vertex%3D%221%22%20connectable%3D%220%22%20parent%3D%221%22%3E%3CmxGeometry%20x%3D%223.0877275175962495%22%20y%3D%22556.2582625950638%22%20as%3D%22geometry%22%2F%3E%3C%2FmxCell%3E%3C%2Froot%3E%3C%2FmxGraphModel%3E&lt;/span&gt;" style="edgeLabel;html=1;align=center;verticalAlign=middle;resizable=0;points=[];fontSize=16;fontFamily=Lucida Console;" vertex="1" connectable="0" parent="62">
                    <mxGeometry x="0.2044" y="2" relative="1" as="geometry">
                        <mxPoint as="offset"/>
                    </mxGeometry>
                </mxCell>
                <mxCell id="65" value="允许触发" style="edgeLabel;html=1;align=center;verticalAlign=middle;resizable=0;points=[];fontSize=16;fontFamily=Lucida Console;" vertex="1" connectable="0" parent="62">
                    <mxGeometry x="0.2044" y="-1" relative="1" as="geometry">
                        <mxPoint as="offset"/>
                    </mxGeometry>
                </mxCell>
                <mxCell id="66" value="" style="edgeStyle=none;orthogonalLoop=1;jettySize=auto;html=1;rounded=0;sketch=1;hachureGap=4;fontFamily=Lucida Console;fontSize=16;startArrow=none;startFill=0;endArrow=open;endFill=0;startSize=14;endSize=14;sourcePerimeterSpacing=8;targetPerimeterSpacing=8;elbow=vertical;entryX=1;entryY=0.5;entryDx=0;entryDy=0;exitX=0;exitY=0.5;exitDx=0;exitDy=0;" edge="1" parent="1" source="16" target="11">
                    <mxGeometry width="120" relative="1" as="geometry">
                        <mxPoint x="511" y="876" as="sourcePoint"/>
                        <mxPoint x="631" y="876" as="targetPoint"/>
                        <Array as="points"/>
                    </mxGeometry>
                </mxCell>
                <mxCell id="67" value="允许触发" style="edgeLabel;html=1;align=center;verticalAlign=middle;resizable=0;points=[];fontSize=16;fontFamily=Lucida Console;" vertex="1" connectable="0" parent="66">
                    <mxGeometry x="-0.0371" y="3" relative="1" as="geometry">
                        <mxPoint as="offset"/>
                    </mxGeometry>
                </mxCell>
                <mxCell id="68" value="" style="edgeStyle=none;orthogonalLoop=1;jettySize=auto;html=1;rounded=0;sketch=1;hachureGap=4;fontFamily=Lucida Console;fontSize=16;startArrow=none;startFill=0;endArrow=open;endFill=0;startSize=14;endSize=14;sourcePerimeterSpacing=8;targetPerimeterSpacing=8;elbow=vertical;exitX=1;exitY=0.5;exitDx=0;exitDy=0;entryX=0;entryY=0.5;entryDx=0;entryDy=0;" edge="1" parent="1" source="13" target="14">
                    <mxGeometry width="120" relative="1" as="geometry">
                        <mxPoint x="612" y="932" as="sourcePoint"/>
                        <mxPoint x="732" y="932" as="targetPoint"/>
                        <Array as="points"/>
                    </mxGeometry>
                </mxCell>
                <mxCell id="72" value="触发" style="edgeLabel;html=1;align=center;verticalAlign=middle;resizable=0;points=[];fontSize=16;fontFamily=Lucida Console;" vertex="1" connectable="0" parent="68">
                    <mxGeometry x="-0.1008" relative="1" as="geometry">
                        <mxPoint as="offset"/>
                    </mxGeometry>
                </mxCell>
                <mxCell id="69" value="" style="edgeStyle=none;orthogonalLoop=1;jettySize=auto;html=1;rounded=0;sketch=1;hachureGap=4;fontFamily=Lucida Console;fontSize=16;startArrow=none;startFill=0;endArrow=open;endFill=0;startSize=14;endSize=14;sourcePerimeterSpacing=8;targetPerimeterSpacing=8;elbow=vertical;exitX=1;exitY=0.5;exitDx=0;exitDy=0;entryX=0;entryY=0.5;entryDx=0;entryDy=0;" edge="1" parent="1" source="14" target="15">
                    <mxGeometry width="120" relative="1" as="geometry">
                        <mxPoint x="972" y="848.91" as="sourcePoint"/>
                        <mxPoint x="1086" y="848.91" as="targetPoint"/>
                        <Array as="points"/>
                    </mxGeometry>
                </mxCell>
                <mxCell id="73" value="触发" style="edgeLabel;html=1;align=center;verticalAlign=middle;resizable=0;points=[];fontSize=16;fontFamily=Lucida Console;" vertex="1" connectable="0" parent="69">
                    <mxGeometry x="-0.0615" y="2" relative="1" as="geometry">
                        <mxPoint as="offset"/>
                    </mxGeometry>
                </mxCell>
                <mxCell id="74" value="" style="edgeStyle=none;orthogonalLoop=1;jettySize=auto;html=1;rounded=0;sketch=1;hachureGap=4;fontFamily=Lucida Console;fontSize=16;startArrow=none;startFill=0;endArrow=open;endFill=0;startSize=14;endSize=14;sourcePerimeterSpacing=8;targetPerimeterSpacing=8;elbow=vertical;exitX=0;exitY=0.5;exitDx=0;exitDy=0;entryX=1;entryY=0.5;entryDx=0;entryDy=0;" edge="1" parent="1" source="12" target="10">
                    <mxGeometry width="120" relative="1" as="geometry">
                        <mxPoint x="199" y="621" as="sourcePoint"/>
                        <mxPoint x="319" y="621" as="targetPoint"/>
                        <Array as="points"/>
                    </mxGeometry>
                </mxCell>
                <mxCell id="75" value="允许触发" style="edgeLabel;html=1;align=center;verticalAlign=middle;resizable=0;points=[];fontSize=16;fontFamily=Lucida Console;" vertex="1" connectable="0" parent="74">
                    <mxGeometry x="0.2402" y="-3" relative="1" as="geometry">
                        <mxPoint x="24" y="3" as="offset"/>
                    </mxGeometry>
                </mxCell>
                <mxCell id="76" value="" style="edgeStyle=none;orthogonalLoop=1;jettySize=auto;html=1;rounded=0;sketch=1;hachureGap=4;fontFamily=Lucida Console;fontSize=16;startArrow=none;startFill=0;endArrow=none;endFill=0;startSize=14;endSize=14;sourcePerimeterSpacing=8;targetPerimeterSpacing=8;elbow=vertical;exitX=0;exitY=0.5;exitDx=0;exitDy=0;entryX=1;entryY=0.5;entryDx=0;entryDy=0;dashed=1;" edge="1" parent="1" source="29" target="9">
                    <mxGeometry width="120" relative="1" as="geometry">
                        <mxPoint x="658" y="467" as="sourcePoint"/>
                        <mxPoint x="778" y="467" as="targetPoint"/>
                        <Array as="points"/>
                    </mxGeometry>
                </mxCell>
                <mxCell id="77" value="" style="edgeStyle=orthogonalEdgeStyle;orthogonalLoop=1;jettySize=auto;html=1;rounded=0;sketch=1;hachureGap=4;fontFamily=Lucida Console;fontSize=16;startArrow=none;startFill=0;endArrow=none;endFill=0;startSize=14;endSize=14;sourcePerimeterSpacing=8;targetPerimeterSpacing=8;elbow=vertical;exitX=0.5;exitY=1;exitDx=0;exitDy=0;dashed=1;" edge="1" parent="1" source="29">
                    <mxGeometry width="120" relative="1" as="geometry">
                        <mxPoint x="1126.0000000000005" y="568" as="sourcePoint"/>
                        <mxPoint x="2" y="589" as="targetPoint"/>
                        <Array as="points">
                            <mxPoint x="1247" y="589"/>
                        </Array>
                    </mxGeometry>
                </mxCell>
                <mxCell id="78" value="&lt;font&gt;Server 内生命周期状态流转&lt;br style=&quot;font-size: 40px&quot;&gt;preparedGenericAPIServer.Run()&lt;/font&gt;" style="text;strokeColor=none;fillColor=none;html=1;align=center;verticalAlign=middle;whiteSpace=wrap;rounded=0;sketch=1;hachureGap=4;fillStyle=solid;fontFamily=Lucida Console;fontSize=40;fontColor=#409EFF;" vertex="1" parent="1">
                    <mxGeometry x="-330" y="-164" width="798" height="135" as="geometry"/>
                </mxCell>
            </root>
        </mxGraphModel>
    </diagram>
</mxfile>